<?xml version="1.0" standalone="no"?>
<!DOCTYPE svg PUBLIC "-//W3C//DTD SVG 20010904//EN" "http://www.w3.org/TR/2001/REC-SVG-20010904/DTD/svg10.dtd">
<svg class="logo" version="1.0" xmlns="http://www.w3.org/2000/svg"
 viewBox="20 200 909 800"
 preserveAspectRatio="xMidYMid meet">
<g transform="translate(0.000000,1000.000000) scale(0.100000,-0.100000)">
<path d="M2450 7452 l0 -88 90 -16 c177 -32 276 -103 427 -308 83 -114 1551
-2272 1559 -2294 7 -19 -1274 -1643 -1401 -1775 -176 -183 -319 -257 -579
-301 l-101 -17 -3 -91 -3 -92 936 0 935 0 0 94 0 93 -72 7 c-100 9 -291 49
-362 76 -110 42 -168 117 -169 219 -1 145 107 338 476 851 221 309 501 683
512 687 12 3 786 -1238 842 -1352 90 -180 101 -298 35 -368 -61 -65 -159 -92
-391 -110 l-156 -12 -3 -92 -3 -93 1271 0 1271 0 -3 93 c-3 90 -4 92 -28 95
-215 21 -332 117 -587 482 -45 63 -395 603 -778 1200 -627 976 -696 1087 -684
1105 33 55 639 890 743 1025 291 378 536 638 681 721 138 80 303 134 490 160
l85 12 0 89 0 88 -935 0 -935 0 0 -90 c0 -49 4 -90 8 -90 31 0 345 -43 377
-51 123 -33 177 -158 141 -327 -31 -147 -119 -291 -457 -747 -118 -159 -253
-343 -299 -408 -46 -64 -87 -116 -92 -115 -14 5 -751 1151 -792 1231 -32 64
-40 92 -44 152 -4 62 -1 81 18 119 47 99 105 116 483 142 l87 6 0 89 0 89
-1295 0 -1295 0 0 -88z"/>
</g>
</svg>
