<?xml version="1.0" encoding="iso-8859-1"?>
<!-- Generator: Adobe Illustrator 16.0.0, SVG Export Plug-In . SVG Version: 6.00 Build 0)  -->
<!DOCTYPE svg PUBLIC "-//W3C//DTD SVG 1.1//EN" "http://www.w3.org/Graphics/SVG/1.1/DTD/svg11.dtd">
<svg version="1.1" id="Capa_1" xmlns="http://www.w3.org/2000/svg" xmlns:xlink="http://www.w3.org/1999/xlink" x="0px" y="0px"
	viewBox="0 0 20.495 20.495" style="enable-background:new 0 0 20.495 20.495;"
	 xml:space="preserve">
<g>
	<g>
		<path d="M16.197,8.55h-0.911c-0.188,0-0.37,0.019-0.548,0.052V6.545c0-0.112-0.013-0.221-0.033-0.327
			c0.599-0.443,0.991-1.148,0.991-1.948c0-1.49-1.372-2.685-2.883-2.386c-0.5-0.526-1.213-0.823-1.946-0.786
			C10.399,0.42,9.62,0,8.789,0C8.114,0,7.476,0.268,7.006,0.734C6.881,0.683,6.753,0.642,6.623,0.612L6.459,0.58
			C6.333,0.56,6.207,0.549,6.078,0.547c-0.189-0.015-0.371-0.014-0.55,0.001H5.479v0.004C4.405,0.66,3.5,1.296,3.145,2.183
			C2.09,2.383,1.29,3.312,1.29,4.422c0,0.775,0.39,1.458,0.982,1.87C2.26,6.375,2.247,6.458,2.247,6.545v12.309
			c0,0.905,0.736,1.642,1.641,1.642h9.208c0.905,0,1.642-0.736,1.642-1.642V16.34c0.178,0.033,0.36,0.053,0.548,0.053h0.911
			c1.659,0,3.009-1.351,3.009-3.01v-1.822C19.206,9.901,17.856,8.55,16.197,8.55z M13.643,18.854c0,0.302-0.244,0.547-0.547,0.547
			H3.888c-0.302,0-0.547-0.245-0.547-0.547V6.545c0-0.302,0.245-0.547,0.547-0.547h9.208c0.303,0,0.547,0.245,0.547,0.547V18.854z
			 M14.13,5.28L14.13,5.28c-0.282-0.232-0.64-0.377-1.034-0.377H3.888c-0.417,0-0.793,0.161-1.083,0.417
			C2.549,5.103,2.384,4.783,2.384,4.422c0-0.651,0.529-1.182,1.181-1.184l0.448-0.002L4.1,2.797C4.202,2.283,4.735,1.74,5.552,1.645
			h0.603c0.245,0.017,0.481,0.097,0.689,0.234l0.452,0.299l0.303-0.449C7.867,1.332,8.312,1.094,8.79,1.094
			c0.556,0,1.05,0.315,1.292,0.823l0.184,0.387l0.42-0.086c0.571-0.115,1.154,0.124,1.478,0.597l0.239,0.352l0.4-0.147
			c0.161-0.059,0.312-0.088,0.461-0.088c0.737,0,1.338,0.6,1.338,1.338C14.602,4.675,14.416,5.035,14.13,5.28z M17.565,13.383
			c0,0.754-0.613,1.368-1.368,1.368h-0.911c-0.195,0-0.38-0.042-0.548-0.116v-4.326c0.168-0.074,0.353-0.116,0.548-0.116h0.911
			c0.754,0,1.368,0.613,1.368,1.368V13.383z"/>
		<rect x="3.888" y="8.003" width="9.21" height="10.851"/>
	</g>
</g>
</svg>
